<svg width="212" height="34" viewBox="0 0 212 34" fill="none" xmlns="http://www.w3.org/2000/svg">
<path d="M154 4L149.45 13.22L139.28 14.69L146.64 21.87L144.9 32L154 27.22L163.1 32L161.36 21.87L168.72 14.7L158.55 13.22L154 4Z" fill="#FFEA2B"/>
<g clip-path="url(#clip0_237_1525)">
<path d="M204.658 32.3333C204.29 32.333 203.93 32.2227 203.625 32.0167L197.408 27.85C197.378 27.8289 197.342 27.8175 197.304 27.8175C197.267 27.8175 197.231 27.8289 197.2 27.85L190.983 32.0167C190.671 32.2251 190.303 32.3337 189.928 32.3279C189.552 32.3221 189.188 32.2023 188.882 31.9844C188.576 31.7665 188.344 31.4608 188.217 31.1078C188.089 30.7549 188.071 30.3714 188.167 30.0083L190.208 22.8083C190.218 22.7721 190.217 22.7339 190.205 22.6983C190.193 22.6628 190.171 22.6315 190.142 22.6083L184.258 17.9833C183.949 17.7526 183.719 17.4307 183.601 17.0628C183.484 16.6949 183.484 16.2995 183.603 15.9319C183.722 15.5644 183.952 15.2431 184.262 15.0132C184.573 14.7833 184.947 14.6563 185.333 14.65L192.833 14.3667C192.87 14.3641 192.906 14.351 192.935 14.3288C192.965 14.3066 192.987 14.2764 193 14.2417L195.583 7.21666C195.714 6.86053 195.95 6.55301 196.261 6.33574C196.572 6.11848 196.942 6.00195 197.321 6.00195C197.7 6.00195 198.07 6.11848 198.381 6.33574C198.692 6.55301 198.928 6.86053 199.058 7.21666L201.642 14.2417C201.655 14.2764 201.677 14.3066 201.707 14.3288C201.736 14.351 201.772 14.3641 201.808 14.3667L209.308 14.65C209.695 14.6563 210.069 14.7833 210.379 15.0132C210.69 15.2431 210.92 15.5644 211.039 15.9319C211.157 16.2995 211.158 16.6949 211.04 17.0628C210.923 17.4307 210.693 17.7526 210.383 17.9833L204.5 22.6083C204.47 22.6308 204.447 22.662 204.435 22.6978C204.423 22.7336 204.423 22.7722 204.433 22.8083L206.475 30.0083C206.547 30.2845 206.554 30.5735 206.496 30.8528C206.438 31.1322 206.316 31.3944 206.141 31.6193C205.965 31.8441 205.74 32.0254 205.483 32.1493C205.226 32.2731 204.944 32.3361 204.658 32.3333ZM197.308 26.15C197.677 26.1613 198.035 26.2832 198.333 26.5L204.55 30.6667C204.582 30.6906 204.62 30.7037 204.66 30.704C204.699 30.7043 204.738 30.6918 204.77 30.6684C204.802 30.645 204.825 30.6118 204.836 30.574C204.848 30.5361 204.847 30.4955 204.833 30.4583L202.792 23.2583C202.691 22.9051 202.699 22.53 202.813 22.181C202.927 21.8321 203.143 21.5253 203.433 21.3L209.317 16.675C209.349 16.6525 209.373 16.6202 209.385 16.583C209.398 16.5458 209.398 16.5056 209.386 16.4683C209.374 16.431 209.35 16.3986 209.318 16.3758C209.286 16.353 209.248 16.341 209.208 16.3417L201.708 16.0583C201.341 16.044 200.987 15.9206 200.69 15.704C200.393 15.4873 200.167 15.1871 200.042 14.8417L197.458 7.81666C197.447 7.77936 197.424 7.74676 197.392 7.72361C197.361 7.70046 197.323 7.68797 197.283 7.68797C197.244 7.68797 197.206 7.70046 197.175 7.72361C197.143 7.74676 197.12 7.77936 197.108 7.81666L194.55 14.8333C194.425 15.1787 194.199 15.4789 193.902 15.6956C193.605 15.9123 193.251 16.0357 192.883 16.05L185.383 16.3333C185.344 16.3327 185.306 16.3447 185.274 16.3674C185.242 16.3902 185.218 16.4227 185.206 16.46C185.194 16.4973 185.194 16.5375 185.207 16.5747C185.219 16.6119 185.243 16.6441 185.275 16.6667L191.167 21.3C191.456 21.526 191.671 21.8328 191.786 22.1815C191.9 22.5303 191.908 22.9051 191.808 23.2583L189.775 30.4583C189.763 30.4944 189.763 30.5334 189.775 30.5695C189.787 30.6056 189.81 30.6368 189.842 30.6583C189.872 30.6842 189.91 30.6983 189.95 30.6983C189.99 30.6983 190.028 30.6842 190.058 30.6583L196.275 26.4917C196.579 26.2901 196.936 26.1829 197.3 26.1833L197.308 26.15Z" fill="white"/>
</g>
<path d="M16 2L11.45 11.22L1.28003 12.69L8.64003 19.87L6.90003 30L16 25.22L25.1 30L23.36 19.87L30.72 12.7L20.55 11.22L16 2Z" fill="#FFEA2B"/>
<path d="M62 2L57.45 11.22L47.28 12.69L54.64 19.87L52.9 30L62 25.22L71.1 30L69.36 19.87L76.72 12.7L66.55 11.22L62 2Z" fill="#FFEA2B"/>
<path d="M108 2L103.45 11.22L93.28 12.69L100.64 19.87L98.9 30L108 25.22L117.1 30L115.36 19.87L122.72 12.7L112.55 11.22L108 2Z" fill="#FFEA2B"/>
<defs>
<clipPath id="clip0_237_1525">
<rect width="30" height="30" fill="white" transform="translate(182 4)"/>
</clipPath>
</defs>
</svg>
